<svg width="377" height="99" viewBox="0 0 377 99" fill="none" xmlns="http://www.w3.org/2000/svg">
<g filter="url(#filter0_d_2_262)">
<path d="M105.176 19.2327L85.3206 93H74.2747L94.1301 19.2327H105.176Z" fill="#0069F1"/>
<path d="M135.38 0L115.524 73.7673H104.479L124.334 0H135.38Z" fill="#0069F1"/>
<path d="M105.176 19.2327L85.3206 93H74.2747L94.1301 19.2327H105.176Z" fill="url(#paint0_linear_2_262)"/>
<path d="M135.38 0L115.524 73.7673H104.479L124.334 0H135.38Z" fill="url(#paint1_linear_2_262)"/>
<path d="M12.9227 44.2192V62.0034H3V30.8196H12.4356V36.5368H12.7769C13.4643 34.6393 14.6417 33.1444 16.3091 32.0521C17.9765 30.9597 19.9609 30.4138 22.2612 30.4138C24.4482 30.4138 26.3528 30.9028 27.9743 31.8814C29.5958 32.86 30.8545 34.2268 31.7503 35.9822C32.6462 37.7381 33.0888 39.7852 33.0778 42.1238V62.0034H23.1547V44.0729C23.1657 42.3485 22.7268 40.997 21.8391 40.0185C20.9514 39.0399 19.7223 38.5508 18.1524 38.5508C17.1103 38.5508 16.1958 38.7765 15.4095 39.2287C14.6231 39.6805 14.015 40.3292 13.5848 41.1739C13.1541 42.0182 12.9337 43.0336 12.9227 44.2192Z" fill="white"/>
<path d="M51.0077 62.5881C47.7379 62.5881 44.928 61.9155 42.577 60.5702C40.226 59.225 38.4176 57.3448 37.1522 54.9301C35.8868 52.5159 35.2544 49.7087 35.2544 46.5091C35.2544 43.3042 35.8868 40.4927 37.1522 38.0756C38.4176 35.6581 40.226 33.7769 42.577 32.4317C44.928 31.0864 47.7379 30.4138 51.0077 30.4138C54.2775 30.4138 57.0879 31.0864 59.4389 32.4317C61.7899 33.7769 63.5979 35.6581 64.8633 38.0756C66.1287 40.4927 66.7616 43.3042 66.7616 46.5091C66.7616 49.7087 66.1287 52.5159 64.8633 54.9301C63.5979 57.3448 61.7899 59.225 59.4389 60.5702C57.0879 61.9155 54.2775 62.5881 51.0077 62.5881ZM51.0728 55.1008C52.2583 55.1008 53.2655 54.737 54.0935 54.0089C54.9219 53.2803 55.5539 52.2668 55.9899 50.9675C56.4259 49.6681 56.6438 48.1603 56.6438 46.4441C56.6438 44.7168 56.4259 43.2052 55.9899 41.9087C55.5539 40.6122 54.9219 39.5983 54.0935 38.8673C53.2655 38.1364 52.2583 37.7711 51.0728 37.7711C49.8442 37.7711 48.8045 38.1364 47.9545 38.8673C47.1045 39.5983 46.4616 40.6122 46.0261 41.9087C45.5901 43.2052 45.3721 44.7168 45.3721 46.4441C45.3721 48.1603 45.5901 49.6681 46.0261 50.9675C46.4616 52.2668 47.1045 53.2803 47.9545 54.0089C48.8045 54.737 49.8442 55.1008 51.0728 55.1008Z" fill="white"/>
<path d="M160.034 62.5882C156.743 62.5882 153.922 61.9112 151.572 60.5578C149.223 59.2045 147.42 57.319 146.164 54.9019C144.908 52.4844 144.28 49.6868 144.28 46.5091C144.28 43.3205 144.912 40.5166 146.174 38.0981C147.437 35.6792 149.243 33.7937 151.591 32.4417C153.939 31.0898 156.748 30.4138 160.018 30.4138C162.903 30.4138 165.418 30.9363 167.562 31.9809C169.706 33.0259 171.382 34.4984 172.592 36.3986C173.802 38.2989 174.44 40.5267 174.505 43.0819H165.231C165.039 41.4876 164.501 40.2365 163.617 39.3282C162.734 38.4204 161.582 37.9662 160.164 37.9662C159.011 37.9662 158.002 38.2875 157.137 38.9304C156.272 39.5734 155.599 40.5219 155.119 41.7768C154.638 43.0312 154.398 44.5763 154.398 46.4116C154.398 48.2579 154.637 49.8115 155.115 51.0731C155.593 52.3343 156.264 53.2885 157.129 53.9358C157.994 54.5826 159.005 54.9062 160.164 54.9062C161.073 54.9062 161.884 54.7083 162.596 54.3134C163.308 53.9181 163.894 53.3387 164.354 52.5752C164.815 51.8122 165.107 50.8834 165.231 49.79H174.505C174.418 52.3563 173.781 54.6007 172.594 56.524C171.408 58.4472 169.75 59.9387 167.621 60.9986C165.492 62.0585 162.963 62.5882 160.034 62.5882Z" fill="white"/>
<path d="M191.948 62.5882C188.678 62.5882 185.867 61.9155 183.516 60.5703C181.165 59.225 179.358 57.3448 178.092 54.9301C176.827 52.5159 176.194 49.7088 176.194 46.5091C176.194 43.3042 176.827 40.4927 178.092 38.0757C179.358 35.6581 181.165 33.777 183.516 32.4317C185.867 31.0865 188.678 30.4138 191.948 30.4138C195.217 30.4138 198.028 31.0865 200.378 32.4317C202.729 33.777 204.538 35.6581 205.803 38.0757C207.069 40.4927 207.702 43.3042 207.702 46.5091C207.702 49.7088 207.069 52.5159 205.803 54.9301C204.538 57.3448 202.729 59.225 200.378 60.5703C198.028 61.9155 195.217 62.5882 191.948 62.5882ZM192.013 55.1008C193.198 55.1008 194.205 54.737 195.033 54.0089C195.862 53.2803 196.494 52.2669 196.93 50.9675C197.365 49.6681 197.583 48.1603 197.583 46.4441C197.583 44.7169 197.365 43.2052 196.93 41.9087C196.494 40.6123 195.862 39.5983 195.033 38.8673C194.205 38.1364 193.198 37.7711 192.013 37.7711C190.784 37.7711 189.744 38.1364 188.894 38.8673C188.044 39.5983 187.402 40.6123 186.966 41.9087C186.53 43.2052 186.312 44.7169 186.312 46.4441C186.312 48.1603 186.53 49.6681 186.966 50.9675C187.402 52.2669 188.044 53.2803 188.894 54.0089C189.744 54.737 190.784 55.1008 192.013 55.1008Z" fill="white"/>
<path d="M222.887 62.4585C220.592 62.4585 218.501 61.861 216.614 60.6658C214.727 59.4702 213.225 57.6837 212.107 55.3058C210.989 52.928 210.43 49.9688 210.43 46.4278C210.43 42.7625 211.011 39.7474 212.172 37.3815C213.333 35.0156 214.859 33.263 216.748 32.1233C218.637 30.9836 220.667 30.4138 222.838 30.4138C224.478 30.4138 225.883 30.6944 227.05 31.2561C228.219 31.8178 229.18 32.5378 229.934 33.4165C230.687 34.2947 231.262 35.2101 231.657 36.1634H231.868V20.4252H241.791V62.0034H231.966V56.9523H231.657C231.24 57.9108 230.644 58.8086 229.87 59.6466C229.096 60.4842 228.131 61.1621 226.975 61.6807C225.819 62.199 224.457 62.4585 222.887 62.4585ZM226.33 54.7111C227.537 54.7111 228.568 54.3693 229.424 53.6857C230.279 53.0021 230.935 52.0397 231.393 50.7987C231.85 49.5576 232.079 48.0953 232.079 46.4115C232.079 44.7116 231.852 43.2454 231.397 42.0124C230.942 40.779 230.287 39.8291 229.432 39.1618C228.576 38.4944 227.542 38.1607 226.33 38.1607C225.101 38.1607 224.062 38.4997 223.214 39.178C222.365 39.8559 221.719 40.813 221.277 42.0488C220.834 43.2846 220.613 44.7388 220.613 46.4115C220.613 48.09 220.836 49.551 221.281 50.7949C221.726 52.0388 222.373 53.0021 223.222 53.6857C224.07 54.3693 225.106 54.7111 226.33 54.7111Z" fill="white"/>
<path d="M261.556 62.5882C258.292 62.5882 255.481 61.9432 253.125 60.6534C250.769 59.3636 248.957 57.5174 247.689 55.1151C246.42 52.7129 245.786 49.8493 245.786 46.5254C245.786 43.3095 246.423 40.4937 247.697 38.0776C248.97 35.662 250.765 33.7803 253.081 32.4336C255.396 31.0869 258.124 30.4138 261.264 30.4138C263.473 30.4138 265.499 30.7604 267.342 31.4531C269.185 32.1463 270.779 33.1689 272.121 34.5208C273.463 35.8728 274.504 37.5383 275.243 39.517C275.982 41.4957 276.352 43.767 276.352 46.3303V48.8158H249.262V43.0499H267.127C267.116 41.9829 266.865 41.0382 266.374 40.2155C265.882 39.3927 265.214 38.7469 264.368 38.2789C263.522 37.8104 262.552 37.5761 261.459 37.5761C260.352 37.5761 259.356 37.8247 258.472 38.3214C257.588 38.8181 256.891 39.4874 256.38 40.3292C255.868 41.1711 255.601 42.1263 255.579 43.1957V49.0753C255.579 50.3475 255.829 51.4608 256.329 52.4151C256.828 53.3693 257.538 54.1093 258.459 54.6361C259.379 55.1625 260.476 55.4259 261.751 55.4259C262.62 55.4259 263.414 55.303 264.132 55.0582C264.851 54.813 265.469 54.453 265.986 53.9783C266.503 53.5031 266.889 52.9247 267.143 52.2425L276.254 52.5021C275.875 54.5486 275.046 56.3265 273.765 57.8358C272.485 59.3445 270.812 60.5139 268.747 61.3438C266.682 62.1732 264.285 62.5882 261.556 62.5882Z" fill="white"/>
<path d="M285.382 73.6485C284.191 73.6485 283.066 73.5572 282.008 73.3745C280.949 73.1919 280.044 72.9529 279.291 72.6579L281.484 65.4469C282.938 65.9259 284.17 66.0942 285.183 65.9522C286.195 65.8102 286.971 65.1868 287.509 64.0825L287.883 63.1403L276.807 30.8196H287.201L292.95 53.0704H293.275L299.089 30.8196L309.556 30.8359L297.806 64.9918C297.232 66.6731 296.427 68.1651 295.39 69.4683C294.354 70.772 293.021 71.7946 291.393 72.536C289.765 73.2775 287.761 73.6485 285.382 73.6485Z" fill="white"/>
<path d="M321.104 44.2192V62.0035H311.181V30.8197H320.616V36.5368H320.958C321.645 34.6394 322.822 33.1445 324.49 32.0521C326.157 30.9598 328.142 30.4138 330.442 30.4138C332.629 30.4138 334.533 30.9029 336.155 31.8815C337.776 32.8601 339.035 34.2268 339.931 35.9823C340.827 37.7382 341.269 39.7852 341.258 42.1239V62.0035H331.335V44.0729C331.346 42.3486 330.908 40.9971 330.02 40.0185C329.132 39.0399 327.903 38.5509 326.333 38.5509C325.291 38.5509 324.377 38.7765 323.59 39.2288C322.804 39.6805 322.196 40.3292 321.765 41.174C321.335 42.0182 321.114 43.0336 321.104 44.2192Z" fill="white"/>
<path d="M359.205 62.5882C355.94 62.5882 353.13 61.9432 350.774 60.6534C348.418 59.3636 346.605 57.5174 345.337 55.1151C344.069 52.7129 343.435 49.8493 343.435 46.5254C343.435 43.3095 344.072 40.4937 345.345 38.0776C346.619 35.662 348.413 33.7803 350.729 32.4336C353.045 31.0869 355.773 30.4138 358.913 30.4138C361.121 30.4138 363.147 30.7604 364.99 31.4531C366.834 32.1463 368.427 33.1689 369.769 34.5208C371.112 35.8728 372.153 37.5383 372.892 39.517C373.631 41.4957 374 43.767 374 46.3303V48.8158H346.91V43.0499H364.776C364.765 41.9829 364.514 41.0382 364.022 40.2155C363.531 39.3927 362.862 38.7469 362.017 38.2789C361.171 37.8104 360.201 37.5761 359.108 37.5761C358 37.5761 357.005 37.8247 356.121 38.3214C355.237 38.8181 354.539 39.4874 354.028 40.3292C353.516 41.1711 353.25 42.1263 353.228 43.1957V49.0753C353.228 50.3475 353.478 51.4608 353.977 52.4151C354.477 53.3693 355.187 54.1093 356.107 54.6361C357.027 55.1625 358.125 55.4259 359.4 55.4259C360.269 55.4259 361.062 55.303 361.781 55.0582C362.5 54.813 363.117 54.453 363.635 53.9783C364.151 53.5031 364.537 52.9247 364.792 52.2425L373.903 52.5021C373.524 54.5486 372.694 56.3265 371.414 57.8358C370.134 59.3445 368.461 60.5139 366.395 61.3438C364.33 62.1732 361.933 62.5882 359.205 62.5882Z" fill="white"/>
</g>
<defs>
<filter id="filter0_d_2_262" x="0.409415" y="0" width="376.181" height="98.1812" filterUnits="userSpaceOnUse" color-interpolation-filters="sRGB">
<feFlood flood-opacity="0" result="BackgroundImageFix"/>
<feColorMatrix in="SourceAlpha" type="matrix" values="0 0 0 0 0 0 0 0 0 0 0 0 0 0 0 0 0 0 127 0" result="hardAlpha"/>
<feOffset dy="2.59058"/>
<feGaussianBlur stdDeviation="1.29529"/>
<feComposite in2="hardAlpha" operator="out"/>
<feColorMatrix type="matrix" values="0 0 0 0 0 0 0 0 0 0 0 0 0 0 0 0 0 0 0.25 0"/>
<feBlend mode="normal" in2="BackgroundImageFix" result="effect1_dropShadow_2_262"/>
<feBlend mode="normal" in="SourceGraphic" in2="effect1_dropShadow_2_262" result="shape"/>
</filter>
<linearGradient id="paint0_linear_2_262" x1="85.5014" y1="93.001" x2="104.48" y2="56.1173" gradientUnits="userSpaceOnUse">
<stop stop-color="#3BC4FF"/>
<stop offset="1" stop-color="#3BC4FF" stop-opacity="0"/>
</linearGradient>
<linearGradient id="paint1_linear_2_262" x1="110.397" y1="73.7683" x2="110.397" y2="39.4573" gradientUnits="userSpaceOnUse">
<stop stop-color="#3BC4FF"/>
<stop offset="1" stop-color="#3BC4FF" stop-opacity="0"/>
</linearGradient>
</defs>
</svg>
